<svg width="1440" height="951" viewBox="0 0 1440 951" fill="none" xmlns="http://www.w3.org/2000/svg">
<path fill-rule="evenodd" clip-rule="evenodd" d="M12.5933 475.898C-42.7362 428.34 -79.2039 356.137 -81.8467 274.426C-86.6237 126.735 20.9139 3.91134 158.345 0.0912268C241.866 -2.23036 317.206 39.9342 364.535 106.521C379.591 101.459 395.561 98.5289 412.151 98.0678C472.883 96.3796 527.458 128.173 560.427 177.818C582.572 150.617 614.853 133.09 651.281 132.078C700.529 130.709 744.158 159.887 766.313 203.567C800.075 180.994 839.762 167.495 882.541 166.306C960.58 164.137 1030.99 203.43 1075.35 265.531C1089.11 261.023 1103.69 258.414 1118.81 257.993C1144.51 257.279 1169.04 262.965 1191.05 273.703C1213.46 228.092 1257.49 196.539 1309.09 195.105C1372.25 193.35 1427 237.267 1445.72 298.891H1452.59V950.76H12.5933V475.898Z" fill="url(#paint0_linear_66_8159)"/>
<defs>
<linearGradient id="paint0_linear_66_8159" x1="402.91" y1="45.3213" x2="403.724" y2="940.207" gradientUnits="userSpaceOnUse">
<stop stop-color="#F3E8FB"/>
<stop offset="1" stop-color="white" stop-opacity="0"/>
</linearGradient>
</defs>
</svg>
