<svg width="1440" height="830" viewBox="0 0 1440 830" fill="none" xmlns="http://www.w3.org/2000/svg">
<path fill-rule="evenodd" clip-rule="evenodd" d="M1440 435.482C1476.37 392.515 1499.76 336.913 1503.19 275.3C1511.22 130.85 1406.43 8.06628 1269.12 1.05569C1185.68 -3.20483 1109.43 36.2738 1060.65 100.325C1045.71 95.0108 1029.81 91.7631 1013.23 90.9168C952.557 87.8188 897.297 117.64 863.242 165.449C841.704 138.297 809.82 120.373 773.425 118.515C724.223 116.002 679.962 143.524 656.851 185.753C623.597 162.854 584.22 148.696 541.48 146.514C463.513 142.533 392.253 179.318 346.544 239.049C332.879 234.308 318.369 231.407 303.262 230.636C277.582 229.325 252.938 234.307 230.692 244.293C209.3 199.115 165.977 167.182 114.426 164.55C37.9522 160.645 -27.6694 222.7 -32.1438 303.154C-34.2947 341.829 -21.9238 377.715 -0.00056839 404.99V993H1440V435.482Z" fill="url(#paint0_linear_455_11279)"/>
<defs>
<linearGradient id="paint0_linear_455_11279" x1="1049.68" y1="118.451" x2="1047.38" y2="1623.25" gradientUnits="userSpaceOnUse">
<stop stop-color="#F3E8FB"/>
<stop offset="1" stop-color="white" stop-opacity="0"/>
</linearGradient>
</defs>
</svg>
